<svg width="50" height="56" viewBox="0 0 50 56" fill="none" xmlns="http://www.w3.org/2000/svg">
<path d="M49.5 22.5965C49.5 35.6824 40.0575 56 26.5 56C12.9425 56 0 42.5596 0 29.4737C0 16.3878 6.44254 0 20 0C33.5575 0 49.5 9.51056 49.5 22.5965Z" fill="#01CECB"/>
<path d="M20.728 19.2051V21.9666" stroke="white" stroke-width="1.5" stroke-miterlimit="10" stroke-linecap="round" stroke-linejoin="round"/>
<path d="M28.092 19.2051V21.9666" stroke="white" stroke-width="1.5" stroke-miterlimit="10" stroke-linecap="round" stroke-linejoin="round"/>
<path d="M16.5858 25.7314H32.2343" stroke="white" stroke-width="1.5" stroke-miterlimit="10" stroke-linecap="round" stroke-linejoin="round"/>
<path d="M29.933 38.5356C31.9665 38.5356 33.615 36.8871 33.615 34.8536C33.615 32.8201 31.9665 31.1716 29.933 31.1716C27.8995 31.1716 26.251 32.8201 26.251 34.8536C26.251 36.8871 27.8995 38.5356 29.933 38.5356Z" stroke="white" stroke-width="1.5" stroke-miterlimit="10" stroke-linecap="round" stroke-linejoin="round"/>
<path d="M31.3046 34.8997H28.5615" stroke="white" stroke-width="1.5" stroke-miterlimit="10" stroke-linecap="round" stroke-linejoin="round"/>
<path d="M29.933 33.5557V36.3079" stroke="white" stroke-width="1.5" stroke-miterlimit="10" stroke-linecap="round" stroke-linejoin="round"/>
<path d="M32.6945 25.1882V32.4233C32.0226 31.6593 31.0376 31.1714 29.933 31.1714C27.8987 31.1714 26.251 32.8191 26.251 34.8534C26.251 35.5438 26.4443 36.1974 26.7849 36.7497C26.9782 37.0811 27.2267 37.3756 27.5121 37.6149H20.728C17.5063 37.6149 16.1255 35.7739 16.1255 33.0124V25.1882C16.1255 22.4267 17.5063 20.5857 20.728 20.5857H28.092C31.3138 20.5857 32.6945 22.4267 32.6945 25.1882Z" stroke="white" stroke-width="1.5" stroke-miterlimit="10" stroke-linecap="round" stroke-linejoin="round"/>
<path d="M24.4058 29.9749H24.4141" stroke="white" stroke-width="2" stroke-linecap="round" stroke-linejoin="round"/>
<path d="M20.9989 29.9749H21.0072" stroke="white" stroke-width="2" stroke-linecap="round" stroke-linejoin="round"/>
<path d="M20.9989 32.7364H21.0072" stroke="white" stroke-width="2" stroke-linecap="round" stroke-linejoin="round"/>
</svg>
