<svg width="53" height="56" viewBox="0 0 53 56" fill="none" xmlns="http://www.w3.org/2000/svg">
<path d="M0 26.5C0 40.0575 14.8946 56 28.4521 56C42.0095 56 53 38.1054 53 24.5479C53 10.9905 42.0095 0 28.4521 0C14.8946 0 0 12.9425 0 26.5Z" fill="#01CECB"/>
<path d="M27.656 34.8996L29.0552 36.2988L31.8535 33.5005" stroke="white" stroke-width="1.5" stroke-linecap="round" stroke-linejoin="round"/>
<path d="M25.5573 27.3699C25.4653 27.3607 25.3548 27.3607 25.2535 27.3699C23.0627 27.2963 21.323 25.5013 21.323 23.2921C21.3138 21.0369 23.1456 19.2051 25.4008 19.2051C27.656 19.2051 29.4878 21.0369 29.4878 23.2921C29.4878 25.5013 27.7389 27.2963 25.5573 27.3699Z" stroke="white" stroke-width="1.5" stroke-linecap="round" stroke-linejoin="round"/>
<path d="M25.4008 37.44C23.7255 37.44 22.0594 37.0166 20.7891 36.1697C18.5615 34.6785 18.5615 32.2484 20.7891 30.7664C23.3205 29.0727 27.4719 29.0727 30.0033 30.7664" stroke="white" stroke-width="1.5" stroke-linecap="round" stroke-linejoin="round"/>
</svg>
