<svg width="51" height="56" viewBox="0 0 51 56" fill="none" xmlns="http://www.w3.org/2000/svg">
<path d="M0.894736 27.0175C0.894736 40.3372 11.1541 56 24.4737 56C37.7933 56 51 49.6705 51 36.3509C51 23.0313 40.6936 0 27.3739 0C14.0543 0 0.894736 13.6979 0.894736 27.0175Z" fill="#EFB24D"/>
<path d="M23.6108 28.1799L34.6945 28.1799" stroke="white" stroke-width="1.5" stroke-linecap="round" stroke-linejoin="round"/>
<path d="M26.3057 25.4957L23.6105 28.1798L26.3057 30.864" stroke="white" stroke-width="1.5" stroke-linecap="round" stroke-linejoin="round"/>
<path d="M30.3379 23.9153V23.0565C30.3379 21.1832 28.82 19.6653 26.9458 19.6653H22.4501C20.5815 19.6653 19.0673 21.1796 19.0673 23.0482V33.3025C19.0673 35.1758 20.5861 36.6946 22.4593 36.6946H26.956C28.8236 36.6946 30.3379 35.1794 30.3379 33.3117V32.4446" stroke="white" stroke-width="1.5" stroke-linecap="round" stroke-linejoin="round"/>
</svg>
