<svg width="51" height="56" viewBox="0 0 51 56" fill="none" xmlns="http://www.w3.org/2000/svg">
<path d="M50.1053 28.9825C50.1053 15.6628 39.8459 -4.17233e-07 26.5263 -4.17233e-07C13.2067 -4.17233e-07 0 6.32952 0 19.6491C0 32.9687 10.3064 56 23.6261 56C36.9457 56 50.1053 42.3021 50.1053 28.9825Z" fill="#5C82EF"/>
<path d="M26.7908 28.4101C26.7908 31.3373 24.4251 33.7029 21.4979 33.7029C18.5707 33.7029 16.205 31.3373 16.205 28.4101C16.205 25.4829 18.5707 23.1172 21.4979 23.1172" stroke="white" stroke-width="1.5" stroke-linecap="round" stroke-linejoin="round"/>
<path d="M23.569 28.41C23.569 25.3631 26.0451 22.887 29.092 22.887C32.1389 22.887 34.615 25.3631 34.615 28.41C34.615 31.4568 32.1389 33.933 29.092 33.933" stroke="white" stroke-width="1.5" stroke-linecap="round" stroke-linejoin="round"/>
</svg>
