<svg width="53" height="56" viewBox="0 0 53 56" fill="none" xmlns="http://www.w3.org/2000/svg">
<path d="M0 27.0175C0 40.3372 13.3946 56 26.9521 56C40.5095 56 52.5 36.4073 52.5 23.0877C52.5 9.76811 40.5095 0 26.9521 0C13.3946 0 0 13.6979 0 27.0175Z" fill="#EFB24D"/>
<path d="M24.615 19.6929L19.0736 23.3104C17.297 24.4703 17.297 27.0661 19.0736 28.2259L24.615 31.8435C25.6092 32.497 27.2476 32.497 28.2418 31.8435L33.7556 28.2259C35.5229 27.0661 35.5229 24.4795 33.7556 23.3196L28.2418 19.7021C27.2476 19.0393 25.6092 19.0393 24.615 19.6929Z" stroke="white" stroke-width="1.5" stroke-linecap="round" stroke-linejoin="round"/>
<path d="M20.5464 29.4041L20.5372 33.7212C20.5372 34.8902 21.4393 36.1421 22.5439 36.5103L25.4803 37.486C25.9866 37.6517 26.8242 37.6517 27.3397 37.486L30.2761 36.5103C31.3807 36.1421 32.2828 34.8902 32.2828 33.7212V29.4501" stroke="white" stroke-width="1.5" stroke-linecap="round" stroke-linejoin="round"/>
<path d="M35.0627 31.1714V25.6484" stroke="white" stroke-width="1.5" stroke-linecap="round" stroke-linejoin="round"/>
</svg>
