<svg width="56" height="56" viewBox="0 0 56 56" fill="none" xmlns="http://www.w3.org/2000/svg">
<path d="M56 18.411C56 31.9684 38.1054 56 24.5479 56C10.9905 56 0 38.1054 0 24.5479C0 10.9905 10.9905 0 24.5479 0C38.1054 0 56 4.8535 56 18.411Z" fill="#5C82EF"/>
<path d="M27.3863 31.3368L27.3863 20.2524" stroke="white" stroke-width="1.5" stroke-linecap="round" stroke-linejoin="round"/>
<path d="M30.0706 28.6414L27.3863 31.3367L24.702 28.6414" stroke="white" stroke-width="1.5" stroke-linecap="round" stroke-linejoin="round"/>
<path d="M31.6512 24.6086H32.5101C34.3834 24.6086 35.9014 26.1266 35.9014 28.0009V32.4968C35.9014 34.3655 34.3871 35.8798 32.5184 35.8798H22.2635C20.3902 35.8798 18.8713 34.3609 18.8713 32.4876V27.9907C18.8713 26.123 20.3865 24.6086 22.2543 24.6086H23.1214" stroke="white" stroke-width="1.5" stroke-linecap="round" stroke-linejoin="round"/>
</svg>
