<svg width="20" height="21" viewBox="0 0 20 21" fill="none" xmlns="http://www.w3.org/2000/svg">
<path d="M16.6667 8.64388C16.6667 12.8047 12.0508 17.138 10.5008 18.4764C10.2042 18.6994 9.7958 18.6994 9.49917 18.4764C7.94917 17.138 3.33333 12.8047 3.33333 8.64388C3.33333 4.96445 6.32057 1.97721 10 1.97721C13.6794 1.97721 16.6667 4.96445 16.6667 8.64388" stroke="#90A1B9" stroke-width="1.66667" stroke-linecap="round" stroke-linejoin="round"/>
<path d="M10 6.14388C8.62021 6.14388 7.5 7.26409 7.5 8.64388C7.5 10.0237 8.62021 11.1439 10 11.1439C11.3798 11.1439 12.5 10.0237 12.5 8.64388C12.5 7.26409 11.3798 6.14388 10 6.14388" stroke="#90A1B9" stroke-width="1.66667" stroke-linecap="round" stroke-linejoin="round"/>
</svg>
