<svg width="20" height="21" viewBox="0 0 20 21" fill="none" xmlns="http://www.w3.org/2000/svg">
<path d="M11.6667 17.8105V15.3105C11.6667 14.3907 10.9199 13.6439 10 13.6439C9.08014 13.6439 8.33333 14.3907 8.33333 15.3105V17.8105" stroke="#90A1B9" stroke-width="1.66667" stroke-linecap="round" stroke-linejoin="round"/>
<path d="M15 10.3105H15.0083" stroke="#90A1B9" stroke-width="1.66667" stroke-linecap="round" stroke-linejoin="round"/>
<path d="M15 13.6439H15.0083" stroke="#90A1B9" stroke-width="1.66667" stroke-linecap="round" stroke-linejoin="round"/>
<path d="M18.3333 6.14388C18.3333 5.68395 17.9599 5.31055 17.5 5.31055H15.8333C15.4927 5.3105 15.1603 5.20609 14.8808 5.01138L10.9525 2.27721C10.3802 1.8783 9.6201 1.87797 9.0475 2.27638L5.11917 5.01055C4.83979 5.20555 4.50737 5.31025 4.16667 5.31055H2.5C2.04007 5.31055 1.66667 5.68395 1.66667 6.14388V16.1439C1.66667 17.0637 2.41347 17.8105 3.33333 17.8105H16.6667C17.5865 17.8105 18.3333 17.0637 18.3333 16.1439" stroke="#90A1B9" stroke-width="1.66667" stroke-linecap="round" stroke-linejoin="round"/>
<path d="M5 10.3105H5.00833" stroke="#90A1B9" stroke-width="1.66667" stroke-linecap="round" stroke-linejoin="round"/>
<path d="M5 13.6439H5.00833" stroke="#90A1B9" stroke-width="1.66667" stroke-linecap="round" stroke-linejoin="round"/>
<path d="M10 6.97721C9.08014 6.97721 8.33333 7.72402 8.33333 8.64388C8.33333 9.56374 9.08014 10.3105 10 10.3105C10.9199 10.3105 11.6667 9.56374 11.6667 8.64388C11.6667 7.72402 10.9199 6.97721 10 6.97721" stroke="#90A1B9" stroke-width="1.66667" stroke-linecap="round" stroke-linejoin="round"/>
</svg>
