<svg width="20" height="21" viewBox="0 0 20 21" fill="none" xmlns="http://www.w3.org/2000/svg">
<path d="M13.3333 18.1914V16.5247C13.3333 14.685 11.8397 13.1914 10 13.1914H5C3.16028 13.1914 1.66667 14.685 1.66667 16.5247V18.1914" stroke="#90A1B9" stroke-width="1.66667" stroke-linecap="round" stroke-linejoin="round"/>
<path d="M13.3333 3.29807C14.8035 3.67921 15.8302 5.00596 15.8302 6.52474C15.8302 8.04352 14.8035 9.37027 13.3333 9.75141" stroke="#90A1B9" stroke-width="1.66667" stroke-linecap="round" stroke-linejoin="round"/>
<path d="M18.3333 18.1914V16.5247C18.3322 15.0057 17.3042 13.6795 15.8333 13.2997" stroke="#90A1B9" stroke-width="1.66667" stroke-linecap="round" stroke-linejoin="round"/>
<path d="M7.5 3.19141C5.66028 3.19141 4.16667 4.68502 4.16667 6.52474C4.16667 8.36446 5.66028 9.85807 7.5 9.85807C9.33972 9.85807 10.8333 8.36446 10.8333 6.52474C10.8333 4.68502 9.33972 3.19141 7.5 3.19141" stroke="#90A1B9" stroke-width="1.66667" stroke-linecap="round" stroke-linejoin="round"/>
</svg>
