<svg width="28" height="28" viewBox="0 0 28 28" fill="none" xmlns="http://www.w3.org/2000/svg">
<path d="M22.1667 8.16667V4.66667C22.1667 4.02277 21.6439 3.5 21 3.5H5.83333C4.54553 3.5 3.5 4.54553 3.5 5.83333C3.5 7.12114 4.54553 8.16667 5.83333 8.16667H23.3333C23.9772 8.16667 24.5 8.68943 24.5 9.33333V14H21C19.7122 14 18.6667 15.0455 18.6667 16.3333C18.6667 17.6211 19.7122 18.6667 21 18.6667H24.5C25.1439 18.6667 25.6667 18.1439 25.6667 17.5V15.1667C25.6667 14.5228 25.1439 14 24.5 14" stroke="#01CECB" stroke-width="2.33333" stroke-linecap="round" stroke-linejoin="round"/>
<path d="M3.5 5.83333V22.1667C3.5 23.4545 4.54553 24.5 5.83333 24.5H23.3333C23.9772 24.5 24.5 23.9772 24.5 23.3333V18.6667" stroke="#01CECB" stroke-width="2.33333" stroke-linecap="round" stroke-linejoin="round"/>
</svg>
