<svg width="24" height="24" viewBox="0 0 24 24" fill="none" xmlns="http://www.w3.org/2000/svg">
<path d="M7.42475 9.65753H4.22408V19.0307H7.42475V9.65753Z" fill="#5C82EF"/>
<path d="M6.88666 5.28329C6.58161 5.09858 6.22312 5.00001 5.85642 5C5.61173 5 5.36946 5.04389 5.14354 5.12917C4.91761 5.21445 4.71249 5.33942 4.53997 5.4969C4.36745 5.65438 4.23093 5.84126 4.13827 6.04679C4.0456 6.25232 3.99862 6.47246 4.00003 6.69453C4.00214 7.02734 4.1128 7.35213 4.31806 7.62792C4.52332 7.90372 4.81398 8.11816 5.15337 8.2442C5.49276 8.37024 5.86568 8.40223 6.22508 8.33613C6.58448 8.27003 6.91426 8.1088 7.17281 7.87279C7.43137 7.63678 7.60711 7.33656 7.67788 7.01C7.74865 6.68344 7.71127 6.34517 7.57046 6.03787C7.42964 5.73056 7.1917 5.468 6.88666 5.28329Z" fill="#5C82EF"/>
<path d="M12.5624 9.65706H9.47912L9.46845 19.0496H12.6691V14.4114C12.6691 13.1914 12.9252 12.01 14.5895 12.01C16.2539 12.01 16.2539 13.4141 16.2539 14.4986V19.0302H19.4545V13.8885C19.4545 11.3613 18.8037 9.42466 15.6031 9.42466C14.993 9.403 14.388 9.53207 13.8525 9.79811C13.317 10.0641 12.8711 10.4572 12.5624 10.9352V9.65706Z" fill="#5C82EF"/>
</svg>
