<svg width="56" height="57" viewBox="0 0 56 57" fill="none" xmlns="http://www.w3.org/2000/svg">
<ellipse cx="28" cy="28.078" rx="28" ry="28.078" fill="#EFB24D"/>
<path fill-rule="evenodd" clip-rule="evenodd" d="M25.0097 19.8462C25.2157 18.3789 26.4761 17.25 28.0001 17.25C28.9172 17.25 29.7394 17.6597 30.2921 18.3035C30.5619 18.6177 30.5259 19.0912 30.2116 19.3611C29.8974 19.6309 29.4239 19.5949 29.154 19.2806C28.8741 18.9546 28.4614 18.75 28.0001 18.75C27.1607 18.75 26.4802 19.4305 26.4802 20.2699V20.3737C26.4802 20.6942 26.2764 20.9794 25.9731 21.0832C24.056 21.7396 22.7088 23.271 22.5058 25.0598L22.0586 28.9998C21.9604 29.8652 21.5963 30.6801 21.019 31.3583C20.6872 31.748 20.6842 32.1854 20.8907 32.5492C21.1045 32.926 21.5679 33.25 22.2229 33.25H33.7773C34.4323 33.25 34.8957 32.926 35.1095 32.5492C35.316 32.1854 35.313 31.748 34.9812 31.3583C34.4039 30.6801 34.0398 29.8652 33.9416 28.9998C33.8949 28.5883 34.1907 28.2168 34.6022 28.17C35.0138 28.1233 35.3853 28.4191 35.432 28.8307C35.4949 29.3846 35.7294 29.9231 36.1234 30.386C36.8887 31.285 36.9123 32.4116 36.4141 33.2895C35.9233 34.1544 34.9506 34.75 33.7773 34.75H22.2229C21.0496 34.75 20.0769 34.1544 19.5861 33.2895C19.0879 32.4116 19.1115 31.285 19.8768 30.386C20.2708 29.9231 20.5053 29.3846 20.5682 28.8307L21.0154 24.8906C21.2755 22.5984 22.8773 20.7444 25.0097 19.8462ZM24.7369 35.2977C25.1248 35.1523 25.557 35.3489 25.7024 35.7368C26.0251 36.5979 26.9155 37.25 28.0001 37.25C29.0847 37.25 29.9751 36.5979 30.2978 35.7368C30.4432 35.3489 30.8754 35.1523 31.2633 35.2977C31.6512 35.4431 31.8478 35.8753 31.7024 36.2632C31.1518 37.7325 29.6856 38.75 28.0001 38.75C26.3146 38.75 24.8485 37.7325 24.2978 36.2632C24.1524 35.8753 24.349 35.4431 24.7369 35.2977Z" fill="white"/>
<path fill-rule="evenodd" clip-rule="evenodd" d="M34 20.5C32.6193 20.5 31.5 21.6193 31.5 23C31.5 24.3807 32.6193 25.5 34 25.5C35.3807 25.5 36.5 24.3807 36.5 23C36.5 21.6193 35.3807 20.5 34 20.5ZM30.5 23C30.5 21.067 32.067 19.5 34 19.5C35.933 19.5 37.5 21.067 37.5 23C37.5 24.933 35.933 26.5 34 26.5C32.067 26.5 30.5 24.933 30.5 23Z" fill="white" stroke="white" stroke-width="0.4" stroke-linecap="round"/>
</svg>
