<svg width="56" height="57" viewBox="0 0 56 57" fill="none" xmlns="http://www.w3.org/2000/svg">
<ellipse cx="28" cy="28.6407" rx="28" ry="28.078" fill="#EFB24D"/>
<path fill-rule="evenodd" clip-rule="evenodd" d="M35.0212 21.7454C35.4582 21.8988 35.7502 22.3119 35.7502 22.7762V29.5681C35.7502 31.4664 35.0623 33.2784 33.8472 34.6823C33.2362 35.3893 32.4633 35.9398 31.6423 36.385L28.0843 38.3124L24.5203 36.384C23.6983 35.9388 22.9243 35.3893 22.3123 34.6813C21.0963 33.2774 20.4062 31.4644 20.4062 29.5641V22.7762C20.4062 22.3119 20.6983 21.8988 21.1353 21.7454L27.7172 19.4259C27.9512 19.3437 28.2062 19.3437 28.4392 19.4259L35.0212 21.7454Z" stroke="#FBF9FF" stroke-width="1.5" stroke-linecap="round" stroke-linejoin="round"/>
<path d="M25.4785 28.558L27.3705 30.4562L31.2685 26.5474" stroke="#FBF9FF" stroke-width="1.5" stroke-linecap="round" stroke-linejoin="round"/>
</svg>
