<svg width="24" height="24" viewBox="0 0 24 24" fill="none" xmlns="http://www.w3.org/2000/svg">
<path d="M19.4545 7.41087C18.8866 7.67109 18.1673 7.91533 17.5227 7.99652C18.1783 7.59455 19.2182 6.75735 19.4545 6C18.8422 6.37202 17.7346 6.76933 17.0121 6.91308C16.4351 6.28084 15.6122 6 14.7003 6C12.9488 6 11.7273 7.53399 11.7273 9.32753V10.6585C9.15152 10.6585 6.64015 8.63075 5.07731 6.66551C4.79472 7.16083 4.64636 7.72564 4.6478 8.30066C4.6478 9.51121 5.72383 10.7397 6.57576 11.3241C6.0561 11.3074 5.07216 10.8975 4.64394 10.6585V10.6965C4.64394 12.2717 5.71352 13.3412 7.16303 13.6394C6.89837 13.7146 6.57576 13.9861 5.33424 13.9861C5.73735 15.2738 7.76383 15.9546 9.15152 15.9826C8.06583 16.8524 6.13015 17.3136 4.64394 17.3136C4.38701 17.3136 4.24792 17.3283 4 17.2983C5.4025 18.2167 7.36136 18.6446 9.15152 18.6446C14.9837 18.6446 18.1667 14.0407 18.1667 9.7468C18.1667 9.60571 18.1622 9.13321 18.1551 8.99478C18.7784 8.5409 19.0308 8.06573 19.4545 7.41087Z" fill="#5C82EF"/>
</svg>
